<svg xmlns="http://www.w3.org/2000/svg" viewBox="0 0 1024 1024">
  <rect width="1024" height="1024" fill="#061A14"/>
  <path fill="#FFFFFF" d="M230 246c0-62 50-112 112-112h340c105 0 190 85 190 190 0 94-67 169-165 185l-207 34c-61 10-91 41-91 91 0 43 35 78 78 78h-145c-62 0-112-50-112-112 0-145 94-233 240-257l198-32c39-6 60-27 60-61 0-32-26-58-58-58H230v54z"/>
  <path fill="#10B981" d="M794 778c0 62-50 112-112 112H432v-134h238c32 0 58-26 58-58 0-34-21-55-60-61l-91-15 130-113c98 16 165 91 165 185 0 31-8 60-22 85-17 29-31 43-56 59z"/>
  <circle cx="274" cy="218" r="92" fill="#10B981"/>
  <circle cx="750" cy="806" r="92" fill="#F59E0B"/>
  <rect x="424" y="438" width="200" height="128" rx="64" fill="#F59E0B"/>
</svg>
